<svg width="422" height="118" viewBox="0 0 422 118" fill="none" xmlns="http://www.w3.org/2000/svg">
<path d="M0.750092 29.6335L2.77908 26.6054L6.43125 35.9227L8.46024 35.4568L9.67763 41.5131L11.3008 27.7701L15.7646 31.0311L18.6052 25.4408L21.8515 40.8143L22.6631 76.9187L24.2863 61.3123L27.1269 69.4649L30.3733 58.9829L31.5907 57.1195C32.5375 53.7808 34.5124 46.1251 34.837 42.2119C35.2428 37.3203 37.2718 29.1677 37.6776 28.4689L38.895 41.5131C39.0303 40.1155 40.437 36.2022 44.982 31.7299L46.6052 37.7862L47.8226 32.8946C48.4989 36.6215 50.095 44.2617 51.0689 45.007L53.9095 35.2239L55.5327 36.8544L57.9675 17.754L59.5907 31.0311L61.2139 32.8946L62.4313 38.4849L64.0544 35.2239L65.2718 22.4127C66.4892 27.3042 69.6544 37.46 72.5762 38.9508L73.7936 31.7299L75.8226 30.0994L77.4457 35.4568L79.4747 31.7299L81.0979 35.2239L82.7211 36.8544L84.7501 32.1958L85.9675 0.750008C86.3733 4.78749 87.5095 13.2817 88.8081 14.9588L90.8371 14.7259L93.6776 30.5653L94.895 26.1396L96.5182 25.9066L97.3298 24.742L99.3588 27.5372L100.576 19.8504L102.199 24.742L103.417 25.9066L105.04 34.0592L106.257 36.8544L108.286 34.0592L109.504 36.3886L110.721 53.6255L112.344 43.1436L115.185 43.8424C115.996 42.3671 117.701 38.3452 118.025 34.0592L120.866 35.9227L122.489 34.758L124.112 40.8143L125.736 51.5291L126.953 48.2681L128.576 55.7219L130.199 54.5572L134.257 42.6777L135.881 43.1436L137.504 41.746H138.721L141.562 33.8263L143.185 34.758L144.402 34.5251L146.431 52.4609L147.649 44.7741L149.272 43.8424H150.489L151.707 42.9106H153.33L155.765 36.8544L157.794 34.758L159.417 24.2761L161.446 24.9749L162.257 26.3725L163.475 25.6737L166.721 34.991L169.562 56.4207L170.373 41.5131L172.402 38.252L174.025 47.3363L177.272 44.3082L179.301 42.6777L180.924 37.5532L182.953 36.8544L185.388 45.24L186.605 37.7862L188.634 37.0874L189.852 38.4849L192.286 38.9508L193.91 44.0753L195.533 45.24L197.156 36.1556L199.996 31.9629H203.243L204.866 28.7018L206.895 30.0994L207.707 27.0713L210.141 26.1396L211.765 28.4689L213.388 28.003L214.605 24.9749L216.228 24.0432L217.852 18.9187L219.069 20.3163L220.286 22.6456L222.315 21.9468L223.939 23.5773L225.156 27.0713L226.373 24.9749L227.996 25.4408L235.301 36.3886L236.924 31.9629L240.576 41.2801L242.605 48.2681L243.823 41.9789L245.852 50.3645L249.91 36.8544L251.127 36.1556L252.75 38.7179L254.373 40.3484L255.185 47.1034L257.214 48.7339L258.837 41.2801L260.054 42.4448L263.301 42.9106L264.518 45.7058L268.17 41.9789L268.982 38.7179L270.199 39.8825L272.228 36.3886L275.069 34.991L276.286 36.3886L277.91 35.9227L278.721 38.7179L280.75 40.3484L281.967 37.7862L283.591 44.5412L285.214 36.3886L286.431 37.0874L288.054 37.5532L289.678 39.6496L292.112 30.3323L293.736 31.0311L295.359 30.0994L296.982 30.3323C297.523 28.6242 298.767 25.0681 299.417 24.509L301.446 28.2359V26.3725L302.257 27.7701L302.663 24.0432L304.286 25.6737L305.504 25.2078C306.315 25.9843 308.02 27.8167 308.344 28.9347C308.75 30.3323 309.562 31.497 310.373 32.1958C311.023 32.7548 311.455 35.6898 311.591 37.0874L312.808 33.3604L314.431 32.8946L315.649 34.991L317.272 32.4287L320.112 34.991L323.359 30.0994L326.199 44.0753L330.663 28.003L331.881 32.6617L333.504 32.8946L335.127 29.8665L336.344 31.9629L337.967 29.8665L339.185 30.7982L341.214 29.6335C342.025 31.8852 343.973 36.6681 345.272 37.7862L346.895 51.2962L349.33 41.0472L350.953 43.3765L352.576 66.2038L354.199 61.7781C355.011 63.7969 356.634 68.44 356.634 70.8625C357.175 69.4649 358.582 66.4368 359.881 65.505L361.504 66.9026L362.721 57.5854L364.75 61.0793L365.562 53.8584C366.373 55.7995 368.159 60.7532 368.808 65.0392C369.62 70.3966 371.649 69.6978 371.649 71.0954C371.649 72.2135 373.542 95.3203 374.489 106.734L375.707 95.5532C375.977 96.4073 376.762 98.2552 377.736 98.8143C378.953 99.5131 380.17 103.007 380.17 103.24C380.17 103.426 381.253 112.324 381.794 116.75L384.634 96.7179C385.581 96.3297 387.556 95.2737 387.881 94.1556L390.721 66.2038L391.939 71.0954C392.48 68.1449 393.562 62.2906 393.562 62.4769C393.562 62.6633 394.644 65.1945 395.185 66.4368L396.808 63.1757L399.243 67.1356L400.866 55.0231L402.489 53.6255L404.112 55.489L405.33 59.2159L407.765 58.75L409.794 60.8464L411.011 53.3926L412.228 55.7219L414.257 56.8866L416.692 69.2319L419.127 72.0271L419.939 73.8906L420.75 72.9588V116.75H381.794H0.750092V29.6335Z" fill="url(#paint0_linear_2559_610)"/>
<path d="M0.750092 29.6335L2.77908 26.6054L6.43125 35.9227L8.46024 35.4568L9.67763 41.5131L11.3008 27.7701L15.7646 31.0311L18.6052 25.4408L21.8515 40.8143L22.6631 76.9187L24.2863 61.3123L27.1269 69.4649L30.3733 58.9829L31.5907 57.1195C32.5375 53.7808 34.5124 46.1251 34.837 42.2119C35.2428 37.3203 37.2718 29.1677 37.6776 28.4689L38.895 41.5131C39.0303 40.1155 40.437 36.2022 44.982 31.7299L46.6052 37.7862L47.8226 32.8946C48.4989 36.6215 50.095 44.2617 51.0689 45.007L53.9095 35.2239L55.5327 36.8544L57.9675 17.754L59.5907 31.0311L61.2139 32.8946L62.4313 38.4849L64.0544 35.2239L65.2718 22.4127C66.4892 27.3042 69.6544 37.46 72.5762 38.9508L73.7936 31.7299L75.8226 30.0994L77.4457 35.4568L79.4747 31.7299L81.0979 35.2239L82.7211 36.8544L84.7501 32.1958L85.9675 0.750008C86.3733 4.78749 87.5095 13.2817 88.8081 14.9588L90.8371 14.7259L93.6776 30.5653L94.895 26.1396L96.5182 25.9066L97.3298 24.742L99.3588 27.5372L100.576 19.8504L102.199 24.742L103.417 25.9066L105.04 34.0592L106.257 36.8544L108.286 34.0592L109.504 36.3886L110.721 53.6255L112.344 43.1436L115.185 43.8424C115.996 42.3671 117.701 38.3452 118.025 34.0592L120.866 35.9227L122.489 34.758L124.112 40.8143L125.736 51.5291L126.953 48.2681L128.576 55.7219L130.199 54.5572L134.257 42.6777L135.881 43.1436L137.504 41.746H138.721L141.562 33.8263L143.185 34.758L144.402 34.5251L146.431 52.4609L147.649 44.7741L149.272 43.8424H150.489L151.707 42.9106H153.33L155.765 36.8544L157.794 34.758L159.417 24.2761L161.446 24.9749L162.257 26.3725L163.475 25.6737L166.721 34.991L169.562 56.4207L170.373 41.5131L172.402 38.252L174.025 47.3364L177.272 44.3082L179.301 42.6777L180.924 37.5532L182.953 36.8544L185.388 45.24L186.605 37.7862L188.634 37.0874L189.852 38.4849L192.286 38.9508L193.91 44.0753L195.533 45.24L197.156 36.1556L199.996 31.9629H203.243L204.866 28.7018L206.895 30.0994L207.707 27.0713L210.141 26.1396L211.765 28.4689L213.388 28.003L214.605 24.9749L216.228 24.0432L217.852 18.9187L219.069 20.3163L220.286 22.6456L222.315 21.9468L223.939 23.5773L225.156 27.0713L226.373 24.9749L227.996 25.4408L235.301 36.3886L236.924 31.9629L240.576 41.2801L242.605 48.2681L243.823 41.9789L245.852 50.3645L249.91 36.8544L251.127 36.1556L252.75 38.7179L254.373 40.3484L255.185 47.1034L257.214 48.7339L258.837 41.2801L260.054 42.4448L263.301 42.9106L264.518 45.7058L268.17 41.9789L268.982 38.7179L270.199 39.8825L272.228 36.3886L275.069 34.991L276.286 36.3886L277.91 35.9227L278.721 38.7179L280.75 40.3484L281.967 37.7862L283.591 44.5412L285.214 36.3886L286.431 37.0874L288.054 37.5532L289.678 39.6496L292.112 30.3323L293.736 31.0311L295.359 30.0994L296.982 30.3323C297.523 28.6242 298.767 25.0681 299.417 24.509L301.446 28.2359V26.3725L302.257 27.7701L302.663 24.0432L304.286 25.6737L305.504 25.2078C306.315 25.9843 308.02 27.8167 308.344 28.9347C308.75 30.3323 309.562 31.497 310.373 32.1958C311.023 32.7548 311.455 35.6898 311.591 37.0874L312.808 33.3604L314.431 32.8946L315.649 34.991L317.272 32.4287L320.112 34.991L323.359 30.0994L326.199 44.0753L330.663 28.003L331.881 32.6617L333.504 32.8946L335.127 29.8665L336.344 31.9629L337.967 29.8665L339.185 30.7982L341.214 29.6335C342.025 31.8852 343.973 36.6681 345.272 37.7862L346.895 51.2962L349.33 41.0472L350.953 43.3765L352.576 66.2038L354.199 61.7781C355.011 63.7969 356.634 68.44 356.634 70.8625C357.175 69.4649 358.582 66.4368 359.881 65.505L361.504 66.9026L362.721 57.5853L364.75 61.0793L365.562 53.8584C366.373 55.7995 368.159 60.7532 368.808 65.0392C369.62 70.3966 371.649 69.6978 371.649 71.0954C371.649 72.2135 373.542 95.3203 374.489 106.734L375.707 95.5532C375.977 96.4073 376.762 98.2552 377.736 98.8143C378.953 99.5131 380.17 103.007 380.17 103.24C380.17 103.426 381.253 112.324 381.794 116.75L384.634 96.7179C385.581 96.3297 387.556 95.2737 387.881 94.1556L390.721 66.2038L391.939 71.0954C392.48 68.1449 393.562 62.2906 393.562 62.4769C393.562 62.6633 394.644 65.1945 395.185 66.4368L396.808 63.1757L399.243 67.1355L400.866 55.0231L402.489 53.6255L404.112 55.489L405.33 59.2159L407.765 58.75L409.794 60.8464L411.011 53.3926L412.228 55.7219L414.257 56.8866L416.692 69.2319L419.127 72.0271L419.939 73.8906L420.75 72.9588" stroke="#5F00D9" stroke-width="1.5" stroke-linecap="round" stroke-linejoin="round"/>
<defs>
<linearGradient id="paint0_linear_2559_610" x1="210.75" y1="0.750008" x2="210.75" y2="116.75" gradientUnits="userSpaceOnUse">
<stop stop-color="#5200FF" stop-opacity="0.2"/>
<stop offset="1" stop-color="#4305F4" stop-opacity="0"/>
</linearGradient>
</defs>
</svg>
